<?xml version="1.0" standalone="no"?><!DOCTYPE svg PUBLIC "-//W3C//DTD SVG 1.1//EN" "http://www.w3.org/Graphics/SVG/1.1/DTD/svg11.dtd"><svg t="1539833524074" class="icon" style="" viewBox="0 0 1033 1024" version="1.1" xmlns="http://www.w3.org/2000/svg" p-id="3035" data-spm-anchor-id="a313x.7781069.0.i1" xmlns:xlink="http://www.w3.org/1999/xlink" width="201.7578125" height="200"><defs><style type="text/css"></style></defs><path d="M521.368611 639.934147a35.653404 35.653404 0 0 1-26.210185-11.328208 35.504189 35.504189 0 0 1-9.683791-26.76137c1.501292-24.584039 5.621471-44.161741 12.250909-58.188012 9.239189-19.087422 26.20105-39.462971 50.425753-60.584599 11.937252-10.274563 21.389606-19.172688 28.104311-26.462938 6.614212-7.174532 11.389113-13.341097 14.598772-18.855986 2.944725-5.058106 4.765765-9.74165 5.420487-13.916643 0.749123-4.805353 1.087143-10.201478 1.011012-16.036114-0.13399-10.527316-2.146878-20.32378-5.977762-29.121414-3.818703-8.770226-9.141742-16.431993-15.822949-22.77518-6.687297-6.334052-14.821073-11.325163-24.16989-14.833253-9.068657-3.401508-19.166598-5.125101-30.019752-5.125101l-1.437343 0.009135c-37.742423 0.493325-63.142581 20.725749-73.444551 58.513851-4.497786 16.508123-19.565521 28.195667-36.640055 28.421013l-0.365426 0.003046c-12.649833 0-24.087669-5.846817-31.420552-16.042205-7.299386-10.152755-9.211782-22.766045-5.246909-34.599759a147.790487 147.790487 0 0 1 6.401046-15.950849c8.118549-17.211568 19.078286-32.148359 32.58078-44.399268 13.468996-12.220457 29.483794-21.846389 47.599792-28.609817 18.030732-6.726885 37.937317-10.277608 59.165527-10.554723 1.001876-0.012181 2.018979-0.018271 3.026946-0.018271 21.222119 0 41.067801 3.01172 58.98586 8.952939 18.855986 6.257922 35.406742 15.229132 49.198531 26.673058 13.889236 11.529193 24.885516 25.497605 32.678227 41.512403 7.804892 16.063521 11.888528 33.908495 12.141281 53.038549 0.283205 21.681947-4.427746 42.039225-13.995819 60.508468-9.610706 18.575826-27.452634 39.091455-53.026369 60.983522-24.069398 20.275057-38.732119 36.277674-43.595331 47.578476-3.474593 7.841435-5.636697 19.020427-6.620302 34.200835-1.218087 18.691544-16.782193 33.524797-35.428058 33.768415H521.368611zM520.296695 754.32469c-23.917137 0-43.379121-19.458939-43.379121-43.376075s19.458939-43.376075 43.379121-43.376075c23.914092 0 43.369985 19.458939 43.369985 43.376075s-19.455893 43.376075-43.369985 43.376075z" p-id="3036" fill="#1296db"></path><path d="M520.296695 751.279473c-22.239222 0-40.333903-18.091636-40.333904-40.330858s18.091636-40.330858 40.333904-40.330858c22.236177 0 40.324768 18.091636 40.324767 40.330858s-18.088591 40.330858-40.324767 40.330858z" p-id="3037" fill="#1296db"></path><path d="M520.296695 752.802082c-23.079702 0-41.856512-18.77681-41.856512-41.853467s18.77681-41.853467 41.856512-41.853467c23.076657 0 41.847376 18.77681 41.847376 41.853467s-18.77072 41.853467-41.847376 41.853467z" p-id="3038" fill="#1296db"></path><path d="M520.296695 749.756864c-21.398742 0-38.811295-17.409507-38.811295-38.808249s17.409507-38.808249 38.811295-38.80825c21.395697 0 38.802159 17.409507 38.802159 38.80825s-17.406462 38.808249-38.802159 38.808249z" p-id="3039" fill="#1296db"></path><path d="M520.296695 748.234256c-20.558262 0-37.288686-16.727379-37.288686-37.285641s16.727379-37.285641 37.288686-37.285641c20.555217 0 37.27955 16.727379 37.27955 37.285641s-16.724333 37.285641-37.27955 37.285641z" p-id="3040" fill="#1296db"></path><path d="M520.296695 745.189038c-18.880347 0-34.243469-15.360076-34.243469-34.240423s15.360076-34.240423 34.243469-34.240424c18.877302 0 34.234333 15.360076 34.234333 34.240424s-15.357031 34.240423-34.234333 34.240423z" p-id="3041" fill="#1296db"></path><path d="M520.296695 746.711647c-19.720827 0-35.766077-16.042205-35.766078-35.763032s16.04525-35.763032 35.766078-35.763032c19.717782 0 35.756942 16.042205 35.756941 35.763032s-16.03916 35.763032-35.756941 35.763032z" p-id="3042" fill="#1296db"></path><path d="M520.296695 678.2308c-18.042913 0-32.72086 14.677947-32.72086 32.717815 0 18.039867 14.677947 32.717815 32.72086 32.717815 18.036822 0 32.711724-14.674902 32.711724-32.717815 0-18.039867-14.674902-32.717815-32.711724-32.717815z" p-id="3043" fill="#1296db"></path><path d="M523.494173 1024c-22.732547 0-45.775707-1.537835-68.489983-4.573916-68.285953-9.129562-132.753204-31.365738-191.611164-66.096442-56.838981-33.533933-106.064919-77.238892-146.30442-129.89679-40.239502-52.660943-69.479678-111.634622-86.910502-175.288799-18.049003-65.922864-22.574196-133.968245-13.44768-202.248108 9.123471-68.270727 31.362693-132.737977 66.096442-191.611164a6306.036013 6306.036013 0 0 1 6.37364-10.563859l1.278991 0.316703c7.180622-7.753123 17.525226-12.330085 28.046451-12.330085A38.04999 38.04999 0 0 1 156.615526 268.234922c0.07613 1.537835 0.307567 9.641158-2.835097 16.090928l-0.289296 0.548139c-0.429376 0.746078-0.77044 1.361212-1.117594 1.982437-1.318579 2.37527-2.621932 4.723132-4.333345 7.070994-29.486839 50.002468-48.333689 104.517949-56.019817 162.032968-15.35094 114.829054 15.043374 228.90594 85.585832 321.212568 70.539414 92.309672 172.627279 151.600054 287.456334 166.950994 19.349311 2.588435 38.966601 3.897878 58.303731 3.897878 70.971835-0.003045 138.907588-16.89182 201.925314-50.197362a38.046945 38.046945 0 0 1 27.431318-3.148755c53.748086 14.169396 84.242892 19.40717 115.797434 24.340422 2.524485 0.395878 5.173824 0.779576 7.418149 0.779576 3.581176 0 5.858998-0.97447 8.118549-3.477638 2.119471-2.347863 1.824085-7.902339 1.550016-9.662475l-13.764382-114.55803c-1.89717-9.790374 0.383697-20.342052 6.291419-28.72858 40.443531-57.438889 65.706654-122.131486 75.082878-192.287202 15.353986-114.829054-15.040328-228.90594-85.582788-321.212568s-172.627279-151.597008-287.456333-166.944903a438.030149 438.030149 0 0 0-57.86522-3.864381c-77.70481 0-155.622786 22.001695-225.330855 63.623725-9.39145 5.60929-21.216029 7.655676-22.534608 7.868842l-0.7004 0.112673-0.937927 0.021316c-21.075949-0.042633-38.156573-17.1598-38.156573-38.156573 0-14.589636 8.505292-28.070813 21.681948-34.395729A507.802168 507.802168 0 0 1 388.003319 21.072904 506.937326 506.937326 0 0 1 521.831484 3.045217c22.668598 0 45.690441 1.54088 68.426033 4.580007 68.279863 9.129562 132.747113 31.365738 191.614209 66.096442 56.838981 33.536978 106.064919 77.238892 146.304421 129.89679 40.239502 52.657898 69.479678 111.634622 86.910502 175.285753 18.045958 65.932 22.571151 133.977381 13.44768 202.248108-10.104031 75.576203-37.465309 149.042071-79.142153 212.531807a22054.398668 22054.398668 0 0 1 19.970535 163.994088c0.252753 2.195602 1.46475 13.328916 0.873977 17.762753-2.509259 18.788991-18.676318 32.955342-37.605388 32.955341-1.46475 0-2.94777-0.085266-4.41252-0.255798-0.499416-0.057859-78.246859-12.357492-180.7641-36.341623-70.378017 34.639347-145.722784 52.201115-223.960507 52.201115z" p-id="3044" data-spm-anchor-id="a313x.7781069.0.i0" class="" fill="#1296db"></path></svg>